<svg viewBox="0 0 320 320" xmlns="http://www.w3.org/2000/svg" xmlns:xlink="http://www.w3.org/1999/xlink">
  <defs>
    <!-- Alfred hat -->
    <g id="awp-hat">
      <!-- hat body -->
      <path id="awp-hat-body" d="M -100,0 L 100,0 L 100,-10 L 70,-10 Q 70,-90 0,-90 Q -70,-90 -70,-10 L -100,-10 Z" fill="#222" stroke="#222" stroke-width="2" />
      <!-- purple band around hat -->
      <path id="awp-hat-band" d="M -70,-10 L 70,-10 Q 71,-20 69,-30 L -69,-30 Q -71,-20 -70,-10 Z" fill="#639" stroke="#639" stroke-width="2" />
    </g>
    <g id="awp-box" fill="#963" stroke="#963" stroke-width="2">
      <!-- front face -->
      <rect x="-80" y="0" width="160" height="100" />
      <!-- side flaps -->
      <g fill="none" stroke-width="4">
        <!-- left flap -->
        <line x1="-80" y1="0" x2="-120" y2="50" />
        <!-- right flap -->
        <line x1="80" y1="0" x2="120" y2="50" />
      </g>
      <!-- front flap -->
      <polygon points="-80,0 -100,50 100,50 80,0" fill="#852" />
    </g>
  </defs>
  <!-- canvas background -->
  <rect x="0" y="0" width="100%" height="100%" fill="#fff" />
  <use xlink:href="#awp-hat" x="160" y="140" />
  <use xlink:href="#awp-box" x="160" y="180" />
</svg>
