<svg viewBox="0 0 320 320" xmlns="http://www.w3.org/2000/svg" xmlns:xlink="http://www.w3.org/1999/xlink">
  <!-- chip body -->
  <path d="M 50,50 L 216,50 A 10.25,10.25,0,0,0,236,50 L 270,50 L 270,270 L 236,270 A 10.25,10.25,0,0,0,216,270 L 50,270 Z" fill="#263" stroke="#031" stroke-width="2" />
  <!-- mask which hides some pinheads -->
  <mask id="cachesimulator-masked-pinhead-regions">
    <rect x="0" y="0" width="100%" height="100%" fill="#fff" />
    <!-- erase the two pinheads below the top concave region -->
    <rect x="214" y="50" width="24" height="20" fill="#000" />
    <!-- erase the two pinheads above the bottom concave region -->
    <rect x="214" y="250" width="24" height="20" fill="#000" />
    <!-- erase the botom-right pinhead -->
    <rect x="250" y="250" width="20" height="20" fill="#000" />
  </mask>
  <!-- pinhead grid -->
  <pattern id="cachesimulator-pinhead-pattern" x="0" y="0" width="12" height="12" patternUnits="userSpaceOnUse">
    <circle cx="4" cy="4" r="4" fill="#ffb" />
  </pattern>
  <rect fill="url(#cachesimulator-pinhead-pattern)" x="58" y="58" width="204" height="204" mask="url(#cachesimulator-masked-pinhead-regions)" />
  <!-- center space -->
  <rect x="118" y="118" width="84" height="84" fill="#263" />
  <!-- microchip grid -->
  <pattern id="cachesimulator-microchip-pattern" x="0" y="3" width="14" height="24" patternUnits="userSpaceOnUse">
    <rect x="1" y="6" width="10" height="16" fill="#333" stroke="#000" stroke-width="1" />
  </pattern>
  <rect fill="url(#cachesimulator-microchip-pattern)" x="124" y="124" width="72" height="72" />
  <!-- bottom-right gold triangle pad -->
  <polygon points="266,266 256,266 266,256" fill="#ffc" />
</svg>
