<svg viewBox="0 0 320 320" version="1.1" xmlns="http://www.w3.org/2000/svg" xmlns:xlink="http://www.w3.org/1999/xlink">
  <!-- reusable icon elements -->
  <defs>
    <!-- angle bracket -->
    <g id="languagesca-bracket">
      <polyline points="10,15 -10,0 10,-15" />
    </g>
    <!-- percent sign -->
    <g id="languagesca-percent">
      <line x1="-10" y1="15" x2="10" y2="-15" />
      <g stroke-width="4">
        <circle cx="-8" cy="-10" r="4"  />
        <circle cx="8" cy="10" r="4"  />
      </g>
    </g>
  </defs>
  <!-- canvas background -->
  <rect x="0" y="0" width="100%" height="100%" fill="#fff" />
  <!-- Atom logo -->
  <g transform="translate(160, 160)">
    <circle cx="0" cy="0" r="10" fill="#5a0" />
    <g fill="none" stroke="#5a0" stroke-width="6" stroke-linecap="round" stroke-linejoin="round">
      <path d="M -50,15 C -90,-5 -50,-25 0,-25 C 50,-25 90,-5 50,15" transform="rotate(5)" />
      <path d="M -50,15 C -90,-5 -50,-25 0,-25 C 50,-25 90,-5 50,15" transform="rotate(-50)" />
      <path d="M 0,25 Q -30,25 -50,15 C -90,-5 -50,-25 0,-25 C 50,-25 90,-5 50,15" transform="rotate(-112)" />
    </g>
  </g>
  <!-- left SSP tag -->
  <g fill="none" stroke="#c33" stroke-width="4" stroke-linecap="round" stroke-linejoin="round" transform="translate(50, 60) scale(1.75)">
      <use xlink:href="#languagesca-bracket" x="0" y="0" />
      <use xlink:href="#languagesca-percent" x="30" y="0" />
  </g>
  <!-- right SSP tag -->
  <g fill="none" stroke="#c33" stroke-width="4" stroke-linecap="round" stroke-linejoin="round" transform="translate(220, 260) scale(1.75)">
      <use xlink:href="#languagesca-bracket" x="-30" y="0" transform="scale(-1,1)" />
      <use xlink:href="#languagesca-percent" x="0" y="0" />
  </g>
</svg>
