<svg viewBox="0 0 320 320" width="500" height="500" version="1.1" xmlns="http://www.w3.org/2000/svg" xmlns:xlink="http://www.w3.org/1999/xlink">

  <rect x="0" y="0" width="100%" height="100%" fill="#fff" />

  <g transform="translate(160, 160)">
    <circle cx="0" cy="0" r="10" fill="#069" />
    <g fill="none" stroke="#069" stroke-width="5" stroke-linecap="round" stroke-linejoin="round">
      <path d="M -50,15 C -90,-5 -50,-25 0,-25 C 50,-25 90,-5 50,15" transform="rotate(5)" />
      <path d="M -50,15 C -90,-5 -50,-25 0,-25 C 50,-25 90,-5 50,15" transform="rotate(-50)" />
      <path d="M 0,25 Q -30,25 -50,15 C -90,-5 -50,-25 0,-25 C 50,-25 90,-5 50,15" transform="rotate(-110)" />
    </g>
  </g>

</svg>
