<svg viewBox="0 0 320 320" version="1.1" xmlns="http://www.w3.org/2000/svg" xmlns:xlink="http://www.w3.org/1999/xlink">
  <!-- reusable icon elements -->
  <defs>
    <!-- curly bracket -->
    <path id="languagehar-bracket" d="M 30,60 Q -5,60 -5,30 Q -5,10 -20,6 L -20,-6 Q -5,-6 -5,-30 Q -5,-60 30,-60 L 30,-50 Q 5,-50 5,-30 Q 5,0 -10,0 Q 5,0 5,30 Q 5,50 30,50 Z" />
  </defs>
  <!-- canvas background -->
  <rect x="0" y="0" width="100%" height="100%" fill="#fff" />
  <!-- Atom logo -->
  <g transform="translate(160, 160)">
    <circle cx="0" cy="0" r="10" fill="#5a0" />
    <g fill="none" stroke="#5a0" stroke-width="6" stroke-linecap="round" stroke-linejoin="round">
      <path d="M -50,15 C -90,-5 -50,-25 0,-25 C 50,-25 90,-5 50,15" transform="rotate(5)" />
      <path d="M -50,15 C -90,-5 -50,-25 0,-25 C 50,-25 90,-5 50,15" transform="rotate(-50)" />
      <path d="M 0,25 Q -30,25 -50,15 C -90,-5 -50,-25 0,-25 C 50,-25 90,-5 50,15" transform="rotate(-112)" />
    </g>
  </g>
  <!-- left JSON bracket -->
  <g fill="#58e" stroke="#58e" stroke-width="4" stroke-linecap="round" stroke-linejoin="round" transform="translate(60, 70) scale(0.8)">
      <use xlink:href="#languagehar-bracket" x="0" y="0" />
  </g>
  <!-- right JSON bracket -->
  <g fill="#58e" stroke="#58e" stroke-width="4" stroke-linecap="round" stroke-linejoin="round" transform="translate(260, 250) scale(-0.8,0.8)">
      <use xlink:href="#languagehar-bracket" x="0" y="0" />
  </g>
</svg>
