<svg viewBox="0 0 320 320" xmlns="http://www.w3.org/2000/svg" xmlns:xlink="http://www.w3.org/1999/xlink">
  <!-- reusable icon elements -->
  <defs>
    <!-- generic cog -->
    <rect x="0" y="-25" width="50" height="50" fill="#234" id="swum-cog" />
  </defs>
  <!-- circular cog body -->
  <g fill="#234">
    <circle cx="160" cy="160" r="100" mask="url(#swum-gear-inner-circle)" id="swum-gear-body" />
    <mask id="swum-gear-inner-circle">
      <rect x="0" y="0" width="100%" height="100%" fill="#fff" />
      <circle cx="160" cy="160" r="50" fill="#000" />
    </mask>
    <!-- center-right cog -->
    <use xlink:href="#swum-cog" x="0" y="0" transform="translate(160,160) rotate(0) translate(75,0)" />
    <!-- bottom-right cog -->
    <use xlink:href="#swum-cog" x="0" y="0" transform="translate(160,160) rotate(45) translate(75,0)" />
    <!-- bottom-middle cog -->
    <use xlink:href="#swum-cog" x="0" y="0" transform="translate(160,160) rotate(90) translate(75,0)" />
    <!-- bottom-left cog -->
    <use xlink:href="#swum-cog" x="0" y="0" transform="translate(160,160) rotate(135) translate(75,0)" />
    <!-- center-left cog -->
    <use xlink:href="#swum-cog" x="0" y="0" transform="translate(160,160) rotate(180) translate(75,0)" />
    <!-- top-left cog -->
    <use xlink:href="#swum-cog" x="0" y="0" transform="translate(160,160) rotate(225) translate(75,0)" />
    <!-- top-middle cog -->
    <use xlink:href="#swum-cog" x="0" y="0" transform="translate(160,160) rotate(270) translate(75,0)" />
    <!-- top-right cog -->
    <use xlink:href="#swum-cog" x="0" y="0" transform="translate(160,160) rotate(315) translate(75,0)" />
  </g>
  <!-- update curve arrow -->
  <marker id="swum-update-arrow" markerWidth="13" markerHeight="13" refX="1.125" refY="2.25" orient="auto-start-reverse">
    <polygon points="0.375,0.75 2.25,2.25 0.375,3.75" fill="#5bd" />
  </marker>
  <!-- bottom update arrow -->
  <g fill="none" stroke="#5bd" stroke-width="10">
    <path d="M 85,160 A 75,75 0,0,0 229.290964938,188.701257427" marker-start="url(#swum-update-arrow)" />
    <path d="M 90.709035062,131.298742573 A 75,75 0,0,1 235,160" marker-end="url(#swum-update-arrow)" />
  </g>
</svg>
