<svg xmlns="http://www.w3.org/2000/svg" viewBox="0 0 448 512">
  <!--!Font Awesome Free 6.5.2 by @fontawesome - https://fontawesome.com License - https://fontawesome.com/license/free Copyright 2024 Fonticons, Inc.-->
  <!-- Combines the square and keybase icons from Font Awesome into a single path (made in Sketch: <https://www.sketch.com/>) -->
  <path d="M384,0 C419.3,0 448,28.7 448,64 L448,384 C448,419.3 419.3,448 384,448 L64,448 C28.7,448 0,419.3 0,384 L0,64 C0,28.7 28.7,0 64,0 L384,0 Z M205.844286,54 L201.68,59.7677158 C195.092857,68.9505265 188.884286,77.6779913 183.281429,86.253674 C181.217301,85.7521414 179.115409,85.4221612 176.997143,85.2670911 C150.603143,83.6733801 147.715703,83.5254837 146.525009,83.5189559 L146.364097,83.5188442 C146.351258,83.5188915 146.338511,83.5189501 146.325821,83.5190177 L146.212141,83.5198107 C146.199458,83.5199127 146.186722,83.5200171 146.173895,83.5201218 L146.09555,83.5207348 C146.082213,83.5208316 146.068711,83.5209242 146.055009,83.5210104 L145.878571,83.5215981 C107.567143,83.5215981 107.415714,123.060808 107.415714,118.355566 L105.598571,146.207562 C104.387143,166.698132 120.59,184.304843 141.638571,185.59499 L148.377143,185.974445 C135.519645,193.308678 123.724818,202.373335 113.321429,212.915749 C66.9464286,259.993971 66.0189286,311.445335 66.0003786,353.341382 L66,381.393764 L83.6414286,358.778247 C86.0151894,368.749293 89.7342024,378.349379 94.6957143,387.313262 C99.0871429,394.978253 105.977143,394.522907 109.535714,392.853305 C112.715714,391.411376 117.107143,387.616826 112.412857,377.599214 C106.354853,364.873303 102.318521,351.276503 100.45,337.301094 L135.884286,291.918278 L117.182857,348.153507 C161.248571,315.975724 236.357143,301.252871 296.095714,318.859582 C321.99,326.524573 347.202857,319.390819 360.225714,300.797525 C360.755714,300.038615 361.134286,299.127923 361.664286,298.369013 C363.026025,305.473408 363.735656,312.687897 363.784286,319.922056 C363.784286,337.604658 360.982857,360.068394 352.502857,381.84911 C350.61,386.782025 353.865714,392.853305 359.014286,393.763997 C364.617143,394.978253 370.598571,391.411376 372.945714,385.264205 C380.214286,365.912001 384,343.903611 384,319.846165 C384,290.55224 374.157143,261.030642 356.818571,235.683049 C349.625714,224.602963 326.987143,195.840275 290.72,179.751383 C286.126667,177.677029 281.482857,175.830348 276.788571,174.21134 C283.014789,158.953752 282.646703,141.790836 275.772093,126.815529 C268.897482,111.840222 256.132553,100.394834 240.521429,95.2088118 C231.132857,92.0972808 222.88,90.6553519 215.99,90.8071339 C215.535714,89.2893139 214.551429,82.4591241 223.107143,64.2452847 L205.844286,54 Z M271.5,348 C264.044156,348 258,354.044156 258,361.5 C258,368.955844 264.044156,375 271.5,375 C278.955844,375 285,368.955844 285,361.5 C285,354.044156 278.955844,348 271.5,348 Z M196.5,348 C189.044156,348 183,354.044156 183,361.5 C183,368.955844 189.044156,375 196.5,375 C203.955844,375 210,368.955844 210,361.5 C210,354.044156 203.955844,348 196.5,348 Z M214.700426,174.744647 L276.48984,247.834238 C278.930148,251.00474 278.352376,255.541528 275.194624,258.004544 C271.836984,260.617213 267.012951,260.150003 264.223384,256.941975 L256.833035,248.213727 L230.623962,268.706135 C228.031005,270.713742 224.313941,270.346793 222.166965,267.871259 L210.129076,253.754267 C208.261131,251.316152 208.702047,247.836096 211.119536,245.936792 L237.480987,225.292588 L226.738315,212.617654 L213.709967,222.863858 C211.236225,224.765062 207.707096,224.433398 205.633916,222.10488 C205.633916,222.10488 202.814917,218.765376 202.738727,218.689479 C200.887941,216.231668 201.363194,212.748536 203.805376,210.872004 L216.681345,200.6258 C216.681345,200.6258 216.646972,200.58508 216.581612,200.507654 L216.295957,200.169267 C215.304368,198.994646 212.546287,195.727584 209.755174,192.422499 L209.231877,191.802852 C205.833429,187.778768 202.546844,183.888927 202.51016,183.852384 C200.069852,180.681882 200.647624,176.145094 203.805376,173.682077 C207.138435,171.078537 211.937536,171.546582 214.700426,174.744647 Z M145.969555,112.011239 L168,113.295498 C165.892456,117.999396 164.121549,122.846388 162.70058,127.800067 L150.814739,127.120165 L149.754855,143.588895 L159.672341,144.193252 C159.225114,149.123037 159.301243,154.086182 159.899459,159 L142.941316,158.01792 C140.470955,157.919753 138.141121,156.845309 136.465376,155.031426 C134.789631,153.217543 133.905549,150.813137 134.008008,148.348207 L135.900658,120.547783 C136.546929,112.680086 143.758364,112.024182 145.572612,112.000703 L145.775192,112.000652 C145.946148,112.003049 146.019411,112.011239 145.969555,112.011239 Z" transform="translate(0, 32)" fill="#fff" />
</svg>
