<svg viewBox="0 0 320 320" xmlns="http://www.w3.org/2000/svg" xmlns:xlink="http://www.w3.org/1999/xlink">
  <!-- canvas background -->
  <rect x="0" y="0" width="100%" height="100%" fill="#fff" />
  <!-- letter e -->
  <path d="M 185,215 Q 102,240 105,175 L 200,175 Q 205,90 140,90 Q 75,90 80,175 Q 80,265 190,235 Z M 175,155 Q 175,110 140,112 Q 105,110 105,155 Z" fill="#36e" stroke="#36e" stroke-width="4" fill-rule="evenodd" />
  <!-- cutout mask in letter e -->
  <use xlink:href="#expressions-letter-e-cutout" x="0" y="0" fill="none" stroke="#36e" stroke-width="4" />
  <!-- letter x -->
  <polygon points="198,100 210,100 220,85 230,100 242,100 225,78 242,56 230,56 220,71 210,56 198,56 215,78" fill="#39f" stroke="#39f" stroke-width="3" />
</svg>
