<svg
	xmlns="http://www.w3.org/2000/svg" viewBox="0 0 200 80" width="200" height="80">
	<pattern id="grid-gridlines-pattern" x="0" y="0" width="10" height="10" patternUnits="userSpaceOnUse">
		<g fill="rgba(0, 0, 0, 0.1)">
			<rect x="0" y="0" width="1" height="10" id="grid-gridline-vertical"></rect>
			<rect x="1" y="0" width="9" height="1" id="grid-gridline-horizontal"></rect>
		</g>
	</pattern>
	<rect x="0" y="0" width="100%" height="100%" fill="url(#grid-gridlines-pattern)"></rect>
	<g id="grid-tiles">
		<rect x="1" y="1" width="9" height="9" fill="rgba(0, 0, 0, 0.05)"></rect>
		<rect x="41" y="1" width="9" height="9" fill="rgba(0, 0, 0, 0.05)"></rect>
		<rect x="71" y="1" width="9" height="9" fill="rgba(0, 0, 0, 0.05)"></rect>
		<rect x="101" y="1" width="9" height="9" fill="rgba(0, 0, 0, 0.05)"></rect>
		<rect x="141" y="1" width="9" height="9" fill="rgba(0, 0, 0, 0.05)"></rect>
		<rect x="171" y="1" width="9" height="9" fill="rgba(0, 0, 0, 0.05)"></rect>
		<rect x="21" y="11" width="9" height="9" fill="rgba(0, 0, 0, 0.05)"></rect>
		<rect x="51" y="11" width="9" height="9" fill="rgba(0, 0, 0, 0.05)"></rect>
		<rect x="91" y="11" width="9" height="9" fill="rgba(0, 0, 0, 0.05)"></rect>
		<rect x="121" y="11" width="9" height="9" fill="rgba(0, 0, 0, 0.05)"></rect>
		<rect x="151" y="11" width="9" height="9" fill="rgba(0, 0, 0, 0.05)"></rect>
		<rect x="191" y="11" width="9" height="9" fill="rgba(0, 0, 0, 0.05)"></rect>
		<rect x="1" y="21" width="9" height="9" fill="rgba(0, 0, 0, 0.05)"></rect>
		<rect x="31" y="21" width="9" height="9" fill="rgba(0, 0, 0, 0.05)"></rect>
		<rect x="41" y="21" width="9" height="9" fill="rgba(0, 0, 0, 0.05)"></rect>
		<rect x="71" y="21" width="9" height="9" fill="rgba(0, 0, 0, 0.05)"></rect>
		<rect x="121" y="21" width="9" height="9" fill="rgba(0, 0, 0, 0.05)"></rect>
		<rect x="151" y="21" width="9" height="9" fill="rgba(0, 0, 0, 0.05)"></rect>
		<rect x="191" y="21" width="9" height="9" fill="rgba(0, 0, 0, 0.05)"></rect>
		<rect x="11" y="31" width="9" height="9" fill="rgba(0, 0, 0, 0.05)"></rect>
		<rect x="51" y="31" width="9" height="9" fill="rgba(0, 0, 0, 0.05)"></rect>
		<rect x="81" y="31" width="9" height="9" fill="rgba(0, 0, 0, 0.05)"></rect>
		<rect x="101" y="31" width="9" height="9" fill="rgba(0, 0, 0, 0.05)"></rect>
		<rect x="141" y="31" width="9" height="9" fill="rgba(0, 0, 0, 0.05)"></rect>
		<rect x="171" y="31" width="9" height="9" fill="rgba(0, 0, 0, 0.05)"></rect>
		<rect x="21" y="41" width="9" height="9" fill="rgba(0, 0, 0, 0.05)"></rect>
		<rect x="41" y="41" width="9" height="9" fill="rgba(0, 0, 0, 0.05)"></rect>
		<rect x="91" y="41" width="9" height="9" fill="rgba(0, 0, 0, 0.05)"></rect>
		<rect x="121" y="41" width="9" height="9" fill="rgba(0, 0, 0, 0.05)"></rect>
		<rect x="141" y="41" width="9" height="9" fill="rgba(0, 0, 0, 0.05)"></rect>
		<rect x="191" y="41" width="9" height="9" fill="rgba(0, 0, 0, 0.05)"></rect>
		<rect x="1" y="51" width="9" height="9" fill="rgba(0, 0, 0, 0.05)"></rect>
		<rect x="51" y="51" width="9" height="9" fill="rgba(0, 0, 0, 0.05)"></rect>
		<rect x="71" y="51" width="9" height="9" fill="rgba(0, 0, 0, 0.05)"></rect>
		<rect x="101" y="51" width="9" height="9" fill="rgba(0, 0, 0, 0.05)"></rect>
		<rect x="151" y="51" width="9" height="9" fill="rgba(0, 0, 0, 0.05)"></rect>
		<rect x="171" y="51" width="9" height="9" fill="rgba(0, 0, 0, 0.05)"></rect>
		<rect x="21" y="61" width="9" height="9" fill="rgba(0, 0, 0, 0.05)"></rect>
		<rect x="51" y="61" width="9" height="9" fill="rgba(0, 0, 0, 0.05)"></rect>
		<rect x="91" y="61" width="9" height="9" fill="rgba(0, 0, 0, 0.05)"></rect>
		<rect x="111" y="61" width="9" height="9" fill="rgba(0, 0, 0, 0.05)"></rect>
		<rect x="141" y="61" width="9" height="9" fill="rgba(0, 0, 0, 0.05)"></rect>
		<rect x="181" y="61" width="9" height="9" fill="rgba(0, 0, 0, 0.05)"></rect>
		<rect x="1" y="71" width="9" height="9" fill="rgba(0, 0, 0, 0.05)"></rect>
		<rect x="41" y="71" width="9" height="9" fill="rgba(0, 0, 0, 0.05)"></rect>
		<rect x="71" y="71" width="9" height="9" fill="rgba(0, 0, 0, 0.05)"></rect>
		<rect x="121" y="71" width="9" height="9" fill="rgba(0, 0, 0, 0.05)"></rect>
		<rect x="151" y="71" width="9" height="9" fill="rgba(0, 0, 0, 0.05)"></rect>
		<rect x="161" y="71" width="9" height="9" fill="rgba(0, 0, 0, 0.05)"></rect>
		<rect x="191" y="71" width="9" height="9" fill="rgba(0, 0, 0, 0.05)"></rect>
	</g>
</svg>
