<svg viewBox="0 0 320 320" xmlns="http://www.w3.org/2000/svg" xmlns:xlink="http://www.w3.org/1999/xlink">
  <defs>
    <!-- Alfred hat -->
    <g id="awp-hat">
      <!-- hat body -->
      <path id="awp-hat-body" d="M -95,0 L 95,0 L 95,-10 L 70,-10 Q 70,-90 0,-90 Q -70,-90 -70,-10 L -95,-10 Z" fill="#222" stroke="#222" stroke-width="" stroke-linejoin="round" />
      <!-- purple band around hat -->
      <path id="awp-hat-band" d="M -70,-12 L 70,-12 Q 71,-20 69,-30 L -69,-30 Q -71,-20 -70,-12 Z" fill="#639" stroke="#639" stroke-width="2" />
    </g>
    <g id="awp-box" fill="#851" stroke="#851" stroke-width="2">
      <!-- front face -->
      <rect x="-80" y="0" width="160" height="100" />
      <!-- side flaps -->
      <g fill="none" stroke-width="4" stroke="#a73">
        <!-- left flap -->
        <line x1="-80" y1="0" x2="-120" y2="50" />
        <!-- right flap -->
        <line x1="80" y1="0" x2="120" y2="50" />
      </g>
      <!-- front flap -->
      <polygon points="-80,0 -100,50 100,50 80,0" fill="#a73" stroke="#a73" />
    </g>
  </defs>
  <!-- canvas background -->
  <rect x="0" y="0" width="100%" height="100%" fill="#fff" />
  <use xlink:href="#awp-hat" x="160" y="140" />
  <use xlink:href="#awp-box" x="160" y="180" />
</svg>
