<svg viewBox="0 0 320 320" version="1.1" xmlns="http://www.w3.org/2000/svg" xmlns:xlink="http://www.w3.org/1999/xlink">
  <!-- reusable icon elements -->
  <defs>
    <!-- curly bracket -->
    <path id="languagepip-bracket" d="M 30,60 L -5,60 L -5,-60 L 30,-60 L 30,-50 L 5,-50 L 5,50 L 30,50 Z" />
  </defs>
  <!-- canvas background -->
  <rect x="0" y="0" width="100%" height="100%" fill="#fff" />
  <!-- Atom logo -->
  <g transform="translate(160, 160)">
    <circle cx="0" cy="0" r="10" fill="#5a0" />
    <g fill="none" stroke="#5a0" stroke-width="6" stroke-linecap="round" stroke-linejoin="round">
      <path d="M -50,15 C -90,-5 -50,-25 0,-25 C 50,-25 90,-5 50,15" transform="rotate(5)" />
      <path d="M -50,15 C -90,-5 -50,-25 0,-25 C 50,-25 90,-5 50,15" transform="rotate(-50)" />
      <path d="M 0,25 Q -30,25 -50,15 C -90,-5 -50,-25 0,-25 C 50,-25 90,-5 50,15" transform="rotate(-112)" />
    </g>
  </g>
  <!-- left JSON bracket -->
  <g fill="#58b" stroke="#58b" stroke-width="4" stroke-linecap="round" stroke-linejoin="round" transform="translate(50, 80) scale(0.8)">
      <use xlink:href="#languagepip-bracket" x="0" y="0" />
  </g>
  <!-- right JSON bracket -->
  <g fill="#c92" stroke="#c92" stroke-width="4" stroke-linecap="round" stroke-linejoin="round" transform="translate(270, 240) scale(-0.8,0.8)">
      <use xlink:href="#languagepip-bracket" x="0" y="0" />
  </g>
</svg>
