<svg viewBox="0 0 320 320" xmlns="http://www.w3.org/2000/svg" xmlns:xlink="http://www.w3.org/1999/xlink">
  <defs>
    <!-- color swatch -->
    <circle id="rgbmixer-color" r="80" stroke-width="4" />
  </defs>
  <!-- canvas background -->
  <rect x="0" y="0" width="100%" height="100%" fill="#fff" />
  <!-- primary color swatches -->
  <g>
    <!-- red -->
    <use xlink:href="#rgbmixer-color" x="160" y="120" fill="#e22" stroke="#e22" />
    <!-- blue -->
    <use xlink:href="#rgbmixer-color" x="200" y="200" fill="#39f" stroke="#39f" />
    <!-- green -->
    <use xlink:href="#rgbmixer-color" x="120" y="200" fill="#7d4" stroke="#7d4" />
  </g>
  <!-- secondary color intersections -->
  <g stroke-width="4">
    <!-- yellow intersection -->
    <path d="M 80.67,130.335 A 80,80 0,0,0 199.33,189.665 A 80,80 0,0,0 80.67,130.335 Z" fill="#ff0" stroke="#ff0" />
    <!-- magenta intersection -->
    <path d="M 239.33,130.335 A 80,80 0,0,0 120.67,189.664 A 80,80 0,0,0 239.33 130.335 Z" fill="#f7f" stroke="#f7f" />
    <!-- cyan intersection -->
    <path d="M 160,269.282 A 80,80 0,0,0 160,130.718 A 80,80 0,0,0 160,269.282 Z" fill="#7ff" stroke="#7ff" />
    <!-- white intersection -->
    <path d="M 120.670,189.664 A 80,80 0,0,0 199.33,189.664 A 80,80 0,0,0 160,130.335 A 80,80 0,0,0 120.670,189.664 Z" fill="#fff" stroke="#fff" />
  </g>
</svg>
