<svg viewBox="0 0 1792 1792" xmlns="http://www.w3.org/2000/svg">
  <mask id="x-mask">
    <rect x="0" y="0" width="100%" height="100%" fill="#fff" />
    <g transform="scale(3,3) translate(145,148)">
      <path d="M178.57 127.15 290.27 0h-26.46l-97.03 110.38L89.34 0H0l117.13 166.93L0 300.25h26.46l102.4-116.59 81.8 116.59h89.34M36.01 19.54H76.66l187.13 262.13h-40.66"/>
    </g>
  </mask>
  <path d="M1664 416v960q0 119-84.5 203.5t-203.5 84.5h-960q-119 0-203.5-84.5t-84.5-203.5v-960q0-119 84.5-203.5t203.5-84.5h960q119 0 203.5 84.5t84.5 203.5z" mask="url(#x-mask)" fill="#fff" />
</svg>
