<svg version="1.1" xmlns="http://www.w3.org/2000/svg" viewBox="0 0 500 500" width="500" height="500"><rect x="0" y="0" width="100%" height="100%" fill="#006699"></rect><g fill="#003366"><rect x="0" y="0" width="50" height="250" opacity="0.07566370894029455"></rect><rect x="50" y="0" width="50" height="250" opacity="0.19474383868059286"></rect><rect x="100" y="0" width="50" height="250" opacity="0.11321920838302874"></rect><rect x="150" y="0" width="50" height="250" opacity="0.2677687574370555"></rect><rect x="200" y="0" width="50" height="250" opacity="0.03611149557856987"></rect><rect x="250" y="0" width="50" height="250" opacity="0.11875668614714191"></rect><rect x="300" y="0" width="50" height="250" opacity="0.16004619417913982"></rect><rect x="350" y="0" width="50" height="250" opacity="0.21369242755933013"></rect><rect x="400" y="0" width="50" height="250" opacity="0.1312699308817354"></rect><rect x="450" y="0" width="50" height="250" opacity="0.2961335860564078"></rect><rect x="0" y="250" width="50" height="250" opacity="0.07594856496023054"></rect><rect x="50" y="250" width="50" height="250" opacity="0.1407594955126135"></rect><rect x="100" y="250" width="50" height="250" opacity="0.11037305840132203"></rect><rect x="150" y="250" width="50" height="250" opacity="0.23807072375210273"></rect><rect x="200" y="250" width="50" height="250" opacity="0.15321886870775117"></rect><rect x="250" y="250" width="50" height="250" opacity="0.05733792094432013"></rect><rect x="300" y="250" width="50" height="250" opacity="0.27390769812272125"></rect><rect x="350" y="250" width="50" height="250" opacity="0.2581391222432505"></rect><rect x="400" y="250" width="50" height="250" opacity="0.16798999532622858"></rect><rect x="450" y="250" width="50" height="250" opacity="0.07158234464655215"></rect></g></svg>
