<svg viewBox="0 0 500 500" width="500" height="500" version="1.1" xmlns="http://www.w3.org/2000/svg">
  <rect x="0" y="0" width="100%" height="100%" fill="#069" />
  <g fill="#036">
    <!-- column 2 (skipping column 1) -->
    <rect x="50" y="0" width="50" height="500" opacity="0.1" />
    <!-- column 3 -->
    <rect x="100" y="0" width="50" height="125" opacity="0.15" />
    <rect x="100" y="125" width="50" height="375" opacity="0.25" />
    <!-- column 4  -->
    <rect x="150" y="0" width="50" height="300" opacity="0.25" />
    <rect x="150" y="300" width="50" height="200" opacity="0.15" />
    <!-- column 5 -->
    <rect x="200" y="100" width="50" height="350" opacity="0.1" />
    <!-- column 6 -->
    <rect x="250" y="0" width="50" height="200" opacity="0.15" />
    <rect x="250" y="200" width="50" height="300" opacity="0.25" />
    <!-- column 7 -->
    <rect x="300" y="0" width="50" height="150" opacity="0.05" />
    <rect x="300" y="150" width="50" height="400" opacity="0.2" />
    <!-- column 8 -->
    <rect x="350" y="0" width="50" height="350" opacity="0.25" />
    <rect x="350" y="350" width="50" height="150" opacity="0.1" />
    <!-- column 9 -->
    <rect x="400" y="200" width="50" height="300" opacity="0.25" />
    <!-- column 10 -->
    <rect x="450" y="0" width="50" height="400" opacity="0.25" />
  </g>
</svg>
