<svg viewBox="0 0 320 320" version="1.1" xmlns="http://www.w3.org/2000/svg" xmlns:xlink="http://www.w3.org/1999/xlink">
  <defs>
    <!-- cutout of the letter e -->
    <path id="expressions-letter-e-cutout" d="M 175,155 Q 175,110 140,112 Q 105,110 105,155 Z" />
    <!-- mask for letter e cutout -->
    <mask id="expressions-letter-e-mask">
      <rect x="0" y="0" width="100%" height="100%" fill="#fff" />
      <use xlink:href="#expressions-letter-e-cutout" x="0" y="0" fill="#000" />
    </mask>
  </defs>
  <!-- letter e -->
  <path d="M 185,215 Q 102,240 105,175 L 200,175 Q 205,90 140,90 Q 75,90 80,175 Q 80,265 190,235 Z" fill="#69f" stroke="#36c" stroke-width="4" mask="url(#expressions-letter-e-mask)" />
  <!-- cutout mask in letter e -->
  <use xlink:href="#expressions-letter-e-cutout" x="0" y="0" fill="none" stroke="#36c" stroke-width="4" />
  <!-- letter x -->
  <polygon points="198,100 210,100 220,85 230,100 242,100 225,78 242,56 230,56 220,71 210,56 198,56 215,78" fill="#69f" stroke="#36c" stroke-width="3" />
</svg>
